<?xml version="1.0" encoding="UTF-8"?>
<svg id="Layer_2" data-name="Layer 2" xmlns="http://www.w3.org/2000/svg" viewBox="0 0 60.35 69.87">
  <defs>
    <style>
      .cls-1 {
        fill: #231f20;
      }
    </style>
  </defs>
  <g id="Layer_1-2" data-name="Layer 1">
    <path class="cls-1" d="m21.38,31.42h-10.65c-3.64,0-6.33-.73-8.09-2.18-1.76-1.45-2.64-3.69-2.64-6.72v-13.57C0,5.92.88,3.67,2.64,2.2,4.4.74,7.1,0,10.73,0h10.65c.55,0,.95.12,1.2.37.25.25.37.65.37,1.2v5.28c0,.55-.12.95-.37,1.2s-.65.37-1.2.37h-8.77c-.9,0-1.57.18-2.01.55-.44.36-.65.91-.65,1.64v10.39c0,.73.22,1.26.65,1.59.44.33,1.11.5,2.01.5h8.77c.55,0,.95.12,1.2.37.25.25.37.65.37,1.2v5.19c0,.55-.12.95-.37,1.2-.25.25-.65.37-1.2.37Zm19.46,0h-6.55c-.55,0-.95-.12-1.2-.37-.25-.25-.37-.65-.37-1.2V1.57c0-.55.12-.95.37-1.2s.65-.37,1.2-.37h4.54c.55,0,1.03.09,1.42.26.39.17.78.48,1.16.92l8.47,9.69V1.57c0-.55.12-.95.37-1.2s.65-.37,1.2-.37h6.55c.55,0,.95.12,1.2.37.25.25.37.65.37,1.2v28.28c0,.55-.12.95-.37,1.2-.25.25-.65.37-1.2.37h-6.55c-.55,0-.95-.12-1.2-.37-.25-.25-.37-.65-.37-1.2v-5.37l-7.46-9.03v14.4c0,.55-.12.95-.37,1.2-.25.25-.65.37-1.2.37Zm-20.47,38.45h-11.34c-.55,0-1.01-.1-1.37-.31-.36-.2-.65-.58-.85-1.13l-4.28-10.69c-.26-.64-.48-1.2-.65-1.68-.17-.48-.32-.94-.44-1.37-.12-.44-.2-.89-.24-1.37-.04-.48-.07-1.07-.07-1.77v-11.52c0-.55.12-.95.37-1.2s.65-.37,1.2-.37h6.94c.55,0,.97.12,1.27.37.29.25.44.65.44,1.2v12.04c0,.29.03.58.09.87.06.29.15.6.26.92l2.05,6.11c.09.29.19.49.31.59.12.1.29.15.52.15h.48c.23,0,.41-.05.52-.15.12-.1.22-.3.31-.59l2.05-6.15c.12-.32.2-.63.26-.92.06-.29.09-.58.09-.87v-12c0-.55.12-.95.37-1.2s.65-.37,1.2-.37h6.85c.55,0,.95.12,1.2.37.25.25.37.65.37,1.2v11.52c0,.7-.02,1.29-.07,1.77-.04.48-.12.94-.24,1.37-.12.44-.26.89-.44,1.37-.17.48-.39,1.04-.65,1.68l-4.28,10.69c-.2.55-.49.93-.85,1.13-.36.2-.82.31-1.37.31Zm30.95,0h-13.79c-.55,0-.95-.12-1.2-.37-.25-.25-.37-.65-.37-1.2v-5.11c0-.55.12-.95.37-1.2s.65-.37,1.2-.37h11.74c.38,0,.66-.12.85-.37.19-.25.28-.55.28-.89,0-.49-.09-.86-.28-1.09-.19-.23-.47-.36-.85-.39l-6.55-.92c-2.04-.29-3.67-.96-4.91-2.01-1.24-1.05-1.85-2.79-1.85-5.24v-4.58c0-2.47.8-4.37,2.4-5.69,1.6-1.32,3.81-1.99,6.63-1.99h12.22c.55,0,.95.12,1.2.37.25.25.37.65.37,1.2v5.19c0,.55-.12.95-.37,1.2s-.65.37-1.2.37h-10.17c-.38,0-.67.12-.87.37-.2.25-.31.56-.31.94s.1.7.31.96c.2.26.49.41.87.44l6.5.87c2.04.29,3.68.96,4.93,2.01,1.25,1.05,1.88,2.79,1.88,5.24v4.58c0,2.47-.81,4.37-2.42,5.69-1.61,1.32-3.82,1.99-6.61,1.99Z"/>
  </g>
</svg>